<?xml version="1.0" standalone="no"?>
<!DOCTYPE svg PUBLIC "-//W3C//DTD SVG 20010904//EN"
 "http://www.w3.org/TR/2001/REC-SVG-20010904/DTD/svg10.dtd">
<svg version="1.0" xmlns="http://www.w3.org/2000/svg"
 width="1024.000000pt" height="1024.000000pt" viewBox="0 0 1024.000000 1024.000000"
 preserveAspectRatio="xMidYMid meet">
<metadata>
Created by potrace 1.14, written by Peter Selinger 2001-2017
</metadata>
<g transform="translate(0.000000,1024.000000) scale(0.100000,-0.100000)"
fill="#000000" stroke="none">
<path d="M0 5120 l0 -5120 5120 0 5120 0 0 5120 0 5120 -5120 0 -5120 0 0
-5120z m5445 2905 c347 -43 640 -131 970 -290 187 -90 350 -194 525 -332 527
-417 874 -963 1045 -1643 78 -310 92 -747 34 -1075 -10 -60 -19 -116 -19 -123
0 -7 -5 -10 -12 -6 -6 4 -8 3 -4 -4 3 -6 3 -29 0 -52 -5 -30 -9 -38 -16 -28
-7 9 -8 8 -4 -5 7 -23 -23 -147 -36 -147 -5 0 -7 -4 -4 -9 4 -5 1 -22 -6 -38
-14 -34 -15 -39 -17 -58 0 -8 -10 -23 -21 -32 -11 -10 -15 -20 -10 -23 10 -6
6 -20 -35 -115 -7 -16 -25 -60 -40 -98 -15 -37 -37 -79 -49 -94 -11 -15 -21
-32 -22 -38 0 -5 -2 -16 -2 -23 -1 -7 -6 -10 -12 -7 -5 3 -11 1 -11 -4 -1 -6
-3 -15 -4 -21 -1 -5 -3 -16 -4 -22 -1 -9 -4 -9 -10 2 -6 8 -7 18 -5 22 3 4 0
8 -5 8 -6 0 -11 -6 -11 -14 0 -8 -5 -18 -12 -22 -8 -5 -9 -2 -5 11 6 14 3 16
-12 12 -15 -4 -22 2 -30 24 -6 16 -8 35 -5 42 3 8 -7 12 -28 13 -18 1 -27 -1
-20 -3 14 -5 16 -33 2 -33 -5 0 -10 -7 -10 -15 0 -8 5 -15 10 -15 6 0 10 -7
10 -15 0 -20 10 -19 26 3 12 15 13 15 14 -9 0 -27 -21 -44 -48 -40 -8 1 -16
-7 -19 -18 -3 -12 -13 -21 -22 -20 -10 0 -11 2 -3 6 6 2 12 11 12 18 0 7 5 15
12 17 7 3 9 11 3 24 -4 10 -8 22 -7 25 2 13 -112 -29 -117 -42 -6 -19 -33 -38
-54 -39 -9 0 -23 -11 -29 -25 -17 -38 -34 -30 -29 13 1 6 -5 12 -14 12 -9 0
-13 5 -10 10 4 6 -10 10 -34 10 -33 0 -44 5 -58 27 -9 16 -19 30 -21 33 -4 6
-22 -22 -22 -37 0 -7 7 -10 16 -6 10 4 17 -2 21 -16 4 -18 11 -21 34 -17 16 2
29 0 29 -5 0 -5 -12 -9 -27 -9 -16 0 -35 -4 -43 -10 -12 -7 -11 -10 5 -16 11
-5 20 -3 23 4 4 14 62 16 62 2 0 -5 -13 -10 -30 -10 -20 0 -30 -5 -30 -15 0
-9 -9 -15 -25 -15 -15 0 -25 6 -25 15 0 18 -34 37 -53 29 -8 -3 -18 -1 -22 5
-3 6 2 11 12 11 15 0 18 7 15 45 -5 56 -22 60 -22 5 0 -22 -5 -40 -11 -40 -6
0 -9 17 -7 43 3 41 4 42 38 41 19 -1 29 0 23 3 -15 6 -17 45 -3 59 7 7 3 18
-12 34 -14 15 -23 19 -26 11 -3 -9 -8 -9 -20 1 -12 10 -16 10 -19 0 -5 -13
-23 -7 -23 9 0 6 4 8 9 4 5 -3 8 6 7 21 -2 14 -9 30 -17 35 -11 6 -8 9 9 9 13
0 20 4 17 10 -3 6 -17 10 -30 10 -13 0 -27 5 -30 10 -3 5 1 10 10 10 8 0 18 7
21 15 4 8 13 15 21 15 8 0 12 -3 9 -8 -2 -4 22 -8 55 -8 32 0 57 2 54 4 -8 8
27 42 36 36 5 -3 6 2 3 10 -3 9 3 20 14 27 12 7 18 19 14 27 -3 10 -1 13 6 8
7 -4 12 -2 12 4 0 6 5 8 12 4 7 -4 8 -3 4 5 -4 6 -10 9 -14 7 -4 -2 -5 16 -3
40 3 38 -1 49 -22 68 -14 13 -23 26 -20 29 3 3 -4 3 -16 0 -28 -7 -27 5 2 18
l22 10 -23 -6 c-12 -3 -32 -8 -44 -12 -16 -5 -19 -3 -13 7 5 9 -5 6 -26 -6
-22 -13 -42 -38 -57 -70 -13 -27 -26 -51 -29 -54 -2 -2 -70 -3 -151 -2 -122 3
-149 6 -159 20 -8 9 -13 11 -13 4 0 -7 -11 -17 -25 -24 -13 -6 -26 -18 -28
-27 -3 -10 -5 -8 -6 7 0 12 5 22 12 22 7 0 18 9 25 20 7 11 8 20 3 20 -5 0
-12 -7 -15 -16 -5 -13 -9 -14 -21 -4 -13 11 -15 6 -16 -31 -4 -163 -7 -221
-13 -226 -3 -4 -6 308 -6 693 0 658 -1 703 -19 766 -35 121 -95 221 -180 301
l-51 48 0 152 c-1 380 -26 529 -120 722 -139 282 -383 493 -689 595 -341 114
-713 93 -1026 -60 -128 -62 -233 -137 -331 -235 -145 -146 -250 -328 -300
-520 -24 -92 -27 -121 -31 -373 l-6 -274 -38 -36 c-110 -101 -186 -241 -209
-384 -5 -36 -10 -319 -12 -653 -1 -324 -5 -567 -9 -540 -4 28 -8 69 -8 93 -1
24 -5 41 -9 38 -5 -3 -5 -29 -1 -58 11 -80 9 -99 -6 -43 -8 28 -13 39 -13 25
0 -14 -1 -34 -2 -45 -2 -17 -3 -16 -9 5 -4 14 -13 24 -20 22 -8 -2 -7 5 3 20
21 29 20 54 0 62 -23 9 -28 1 -14 -24 10 -19 9 -26 -6 -41 -17 -16 -38 -18
-161 -20 -78 0 -147 2 -153 6 -20 12 -59 104 -46 109 6 3 4 5 -4 4 -8 -1 -24
3 -35 9 -23 12 -115 26 -96 14 9 -6 10 -11 2 -15 -6 -4 -16 -4 -23 0 -7 4 -8
3 -4 -4 3 -6 -3 -16 -14 -22 -11 -6 -20 -18 -20 -26 0 -8 -4 -13 -9 -10 -5 3
-8 -5 -7 -19 0 -14 4 -25 9 -25 4 0 7 -7 7 -16 0 -9 13 -38 29 -63 24 -40 26
-48 14 -60 -8 -7 -12 -19 -10 -25 3 -7 -4 -18 -14 -24 -20 -13 -26 -32 -9 -32
6 0 10 7 10 15 0 10 11 15 35 15 19 0 35 -4 35 -10 0 -5 7 -10 15 -10 21 0 19
8 -7 31 -21 18 -21 19 -2 10 24 -12 93 2 132 26 17 11 23 12 14 3 -10 -12 -8
-16 8 -25 18 -10 19 -13 6 -30 -10 -14 -26 -19 -64 -20 -40 0 -48 -3 -40 -13
6 -7 17 -11 23 -8 13 5 75 -29 75 -41 0 -4 -12 -19 -26 -34 l-26 -28 -24 26
c-15 16 -24 21 -24 12 0 -11 -2 -11 -10 1 -5 8 -12 11 -17 7 -4 -5 -1 -12 7
-18 13 -8 13 -10 0 -19 -10 -7 -11 -10 -2 -10 8 0 9 -5 3 -17 -5 -10 -13 -27
-17 -38 -6 -18 -8 -18 -11 -2 -6 22 -39 22 -47 1 -8 -21 2 -33 13 -16 6 10 13
10 34 -1 24 -12 25 -16 12 -27 -12 -10 -15 -10 -15 0 0 8 -3 10 -7 6 -5 -4 -8
-16 -8 -27 0 -10 -4 -19 -10 -19 -5 0 -10 10 -10 23 0 29 -30 29 -30 0 0 -12
-4 -25 -8 -29 -4 -4 -7 5 -7 19 l0 27 -57 -7 c-32 -4 -73 -7 -90 -7 -18 0 -33
-3 -33 -8 0 -13 -30 -9 -46 6 -8 8 -14 22 -14 30 0 12 -11 16 -44 16 -25 0
-56 -4 -70 -10 -22 -8 -24 -14 -21 -49 3 -31 1 -39 -11 -34 -10 4 -12 0 -8
-13 6 -18 5 -17 -9 1 -8 10 -12 26 -9 34 4 10 1 12 -8 6 -9 -5 -11 -4 -6 4 4
6 11 9 15 7 4 -3 8 11 8 32 1 31 0 33 -6 12 l-7 -25 -22 35 c-12 19 -22 30
-22 25 0 -6 7 -20 15 -32 12 -17 13 -23 3 -29 -7 -4 -10 -4 -6 1 4 4 2 13 -5
19 -19 16 -39 66 -25 63 6 -1 13 4 16 12 3 10 -1 12 -17 8 -27 -7 -50 28 -30
47 9 8 10 7 5 -9 -5 -14 -4 -17 3 -10 7 7 4 24 -10 53 -24 49 -32 53 -24 15 5
-24 3 -23 -15 10 -11 21 -18 42 -15 46 3 5 1 11 -5 13 -16 5 -117 286 -156
434 -92 349 -113 760 -59 1129 71 482 294 982 619 1385 145 180 432 442 636
581 362 245 793 414 1235 483 143 23 145 23 415 24 167 1 284 -3 365 -13z
m-65 -1005 c333 -87 598 -340 696 -667 25 -81 27 -106 32 -305 l4 -218 -200 0
-199 0 -6 183 c-6 209 -20 272 -86 374 -114 177 -286 279 -487 291 -218 12
-415 -84 -538 -262 -81 -118 -105 -225 -106 -478 l0 -108 -200 0 -200 0 0 189
c0 213 11 294 59 417 50 130 98 201 211 314 155 155 324 246 526 284 119 23
382 15 494 -14z m-140 -599 c74 -28 149 -95 185 -167 29 -58 30 -63 33 -236
l4 -178 -134 -1 c-73 -1 -236 -2 -361 -3 l-228 -1 3 180 c3 170 5 183 29 235
43 91 134 164 236 190 56 14 170 5 233 -19z m861 -814 c81 -34 142 -82 187
-146 65 -92 73 -130 79 -353 l6 -198 -347 0 c-369 0 -391 -3 -416 -49 -25 -48
0 -133 42 -145 13 -3 177 -6 366 -6 l342 0 0 -58 c0 -33 3 -92 6 -133 l6 -74
-221 -2 -221 -2 0 34 c0 65 0 65 -131 65 l-119 0 0 -40 c0 -29 -6 -45 -21 -58
-55 -45 -60 -55 -57 -114 1 -31 5 -55 9 -53 3 2 13 -5 22 -16 16 -18 32 -19
372 -19 l356 0 -3 -227 c-3 -212 -5 -231 -26 -277 -18 -40 -25 -46 -37 -36 -8
6 -18 9 -24 6 -5 -4 -12 2 -14 11 -4 14 -5 13 -6 -4 0 -12 -13 -31 -28 -42
l-28 -20 25 -2 c27 -1 24 -3 -38 -24 -13 -4 -21 -13 -18 -20 8 -22 -119 -81
-194 -90 -20 -3 -33 1 -41 13 -10 16 -10 16 -5 0 7 -22 -13 -35 -25 -17 -6 10
-9 11 -9 2 0 -7 -9 -13 -20 -13 -11 0 -20 3 -20 8 0 4 -198 7 -441 7 -242 0
-443 3 -446 8 -5 9 -69 8 -103 -2 -32 -9 -60 -2 -60 15 0 10 -13 14 -40 14
-33 0 -40 -3 -40 -19 0 -17 -6 -19 -37 -18 -31 2 -39 7 -41 25 -4 26 -20 28
-48 7 -19 -14 -19 -14 1 -16 11 0 0 -7 -25 -13 -42 -12 -47 -12 -71 10 -14 13
-30 24 -35 24 -6 0 -15 5 -22 12 -6 6 -46 13 -88 14 -81 3 -98 9 -74 25 11 8
8 8 -10 3 -14 -4 -26 -11 -28 -15 -5 -13 -59 -11 -84 2 -14 8 -23 8 -31 0 -13
-13 -30 -15 -23 -2 3 5 -1 12 -10 15 -8 3 -13 2 -10 -2 2 -4 0 -14 -5 -22 -9
-13 -10 -13 -8 0 3 33 -1 41 -20 35 -11 -3 -22 -1 -26 5 -3 5 1 10 9 10 19 0
31 19 19 31 -5 5 -20 3 -36 -6 -25 -13 -28 -12 -42 8 -8 12 -15 25 -15 30 0 5
-9 21 -20 36 -10 15 -21 45 -23 65 -2 21 -9 41 -15 45 -8 4 -12 67 -14 186 -3
179 -3 180 -25 179 -16 0 -23 5 -23 18 0 18 15 19 344 18 234 -1 351 2 365 10
63 33 66 145 4 185 -18 12 -23 24 -23 60 l0 45 -125 0 -125 0 0 -45 c0 -36 -4
-45 -17 -46 -10 0 -98 -1 -196 -2 l-177 -2 0 114 0 113 -25 -4 c-21 -4 -25 -1
-25 18 l0 24 345 0 c234 0 352 4 369 11 54 25 60 124 11 167 -26 22 -28 22
-351 22 l-324 0 0 33 c0 17 -3 102 -6 187 -7 156 -15 204 -30 166 -5 -12 -3
-21 4 -24 7 -2 12 -8 12 -13 0 -6 -4 -8 -9 -4 -6 3 -12 -12 -14 -32 -3 -21 -3
-3 -2 39 6 156 111 303 254 354 28 10 236 13 991 13 l955 1 56 -23z m599
-1457 c0 -11 -4 -20 -9 -20 -5 0 -7 9 -4 20 3 11 7 20 9 20 2 0 4 -9 4 -20z
m257 -51 c11 -29 11 -30 -5 -16 -14 13 -20 13 -34 3 -10 -7 -18 -23 -18 -34 0
-11 -5 -24 -11 -27 -12 -8 -7 -30 7 -31 26 -2 41 -17 37 -35 -4 -13 0 -19 11
-19 10 0 14 5 11 10 -7 11 6 13 30 4 13 -6 14 -9 3 -16 -10 -7 -9 -11 6 -23
13 -10 15 -15 6 -15 -7 0 -22 7 -32 17 -12 11 -18 12 -18 3 0 -6 -6 -10 -14
-7 -7 3 -22 0 -32 -7 -11 -8 -53 -17 -95 -20 -72 -7 -77 -6 -107 19 -29 24
-46 55 -22 40 6 -3 7 1 4 10 -4 10 -2 15 6 13 7 -2 15 4 17 12 4 13 3 13 -6 0
-7 -10 -11 -11 -11 -3 0 7 -7 10 -15 7 -8 -4 -15 -1 -15 6 0 7 12 9 34 6 26
-4 36 -2 41 12 6 15 7 15 15 2 6 -11 27 -16 68 -18 l59 -2 -3 45 c-3 32 0 45
9 45 7 0 21 11 31 25 24 32 29 32 43 -6z m-3529 -26 c-10 -2 -28 -2 -40 0 -13
2 -5 4 17 4 22 1 32 -1 23 -4z m119 -25 c-3 -7 -5 -2 -5 12 0 14 2 19 5 13 2
-7 2 -19 0 -25z m3103 25 c0 -5 -5 -15 -10 -23 -7 -12 -9 -10 -7 8 1 19 17 33
17 15z m200 3 c0 -11 -19 -15 -25 -6 -3 5 1 10 9 10 9 0 16 -2 16 -4z m-85
-26 c3 -5 -1 -10 -10 -10 -9 0 -13 5 -10 10 3 6 8 10 10 10 2 0 7 -4 10 -10z
m240 -7 c25 -34 -6 -59 -31 -25 -21 27 -15 40 6 13 13 -15 20 -18 20 -9 0 8
-5 19 -12 26 -7 7 -8 12 -4 12 5 0 14 -8 21 -17z m-155 -13 c0 -5 -7 -10 -15
-10 -8 0 -15 5 -15 10 0 6 7 10 15 10 8 0 15 -4 15 -10z m-3850 -10 c0 -5 -4
-10 -10 -10 -5 0 -10 5 -10 10 0 6 5 10 10 10 6 0 10 -4 10 -10z m3790 0 c0
-5 -4 -10 -10 -10 -5 0 -10 5 -10 10 0 6 5 10 10 10 6 0 10 -4 10 -10z m149
-29 c-15 -5 -22 6 -14 19 6 9 10 9 16 -1 5 -8 4 -15 -2 -18z m-3700 -24 c1 6
20 15 44 18 47 7 217 13 200 8 -6 -2 -1 -15 13 -30 20 -22 21 -27 9 -40 -8 -8
-15 -19 -15 -24 0 -12 17 -12 23 1 3 6 4 5 3 -2 -4 -20 -182 -16 -222 5 -17 8
-43 14 -58 13 -14 -2 -24 -1 -21 2 3 3 -5 12 -17 19 l-23 14 23 -7 c21 -5 23
-3 17 15 -3 11 -3 26 1 33 6 9 10 5 15 -12 4 -14 7 -20 8 -13z m-129 -143 c0
-8 -4 -12 -10 -9 -5 3 -10 10 -10 16 0 5 5 9 10 9 6 0 10 -7 10 -16z m3962
-14 c-2 -16 -9 -30 -14 -30 -6 0 -7 7 -4 16 3 9 6 22 6 30 0 8 4 14 8 14 5 0
7 -13 4 -30z m30 0 c-6 -16 -11 -20 -16 -11 -4 6 -2 19 5 27 16 20 21 12 11
-16z m488 -25 c0 -8 -7 -15 -15 -15 -8 0 -15 7 -15 15 0 8 7 15 15 15 8 0 15
-7 15 -15z m-4895 -50 c14 -14 25 -32 25 -40 0 -11 12 -15 40 -15 29 0 40 -4
40 -15 0 -11 -11 -15 -40 -15 -28 0 -40 -4 -40 -14 0 -8 -6 -16 -13 -19 -7 -3
-19 -23 -26 -46 -6 -23 -15 -41 -20 -41 -11 0 0 64 13 72 6 4 11 11 11 15 1 4
4 18 8 30 6 16 2 29 -14 47 -30 35 -43 33 -35 -6 l6 -32 -21 23 c-18 19 -19
25 -8 32 12 8 12 11 -1 19 -13 9 -13 11 0 20 25 16 48 11 75 -15z m463 -26
c19 -30 8 -34 -12 -4 -9 14 -13 25 -9 25 5 0 14 -9 21 -21z m-278 -4 c0 -10
-10 -15 -30 -15 -36 0 -38 7 -7 20 32 13 37 12 37 -5z m220 -5 c0 -11 -4 -20
-9 -20 -13 0 -32 26 -24 33 13 14 33 6 33 -13z m3940 0 c0 -4 -6 -10 -13 -13
-7 -3 -13 3 -13 13 0 10 6 16 13 13 7 -3 13 -9 13 -13z m448 8 c-7 -20 -48
-23 -48 -4 0 11 9 16 26 16 16 0 24 -5 22 -12z m173 -15 c-8 -15 -10 -15 -11
-2 0 17 10 32 18 25 2 -3 -1 -13 -7 -23z m-4529 -25 c-6 -6 -9 0 -9 18 0 23 1
24 9 10 7 -12 7 -21 0 -28z m3865 17 c0 -8 -7 -15 -15 -15 -12 0 -12 3 -2 15
7 8 13 15 15 15 1 0 2 -7 2 -15z m-3535 -8 c9 -1 16 -4 16 -7 -1 -3 4 -18 10
-33 39 -93 -31 -177 -122 -147 -19 6 -40 17 -46 25 -7 8 -17 12 -23 8 -5 -3
-7 -1 -4 4 11 17 -4 73 -19 73 -8 0 -14 2 -14 4 0 2 -3 12 -7 22 -4 11 -3 15
4 11 18 -12 42 3 36 21 -4 9 -3 14 1 10 4 -3 24 0 44 7 21 8 53 12 72 9 19 -3
43 -6 52 -7z m2801 0 c3 -8 -1 -14 -8 -14 -7 0 -11 6 -8 14 3 7 6 13 8 13 2 0
5 -6 8 -13z m582 1 c24 -11 70 -80 60 -90 -2 -2 -5 -18 -7 -36 -1 -17 -8 -34
-16 -37 -7 -3 -11 -8 -8 -13 2 -4 -3 -8 -12 -9 -9 -1 -33 -4 -52 -8 -78 -15
-142 74 -106 146 19 38 20 42 4 33 -7 -4 -8 -3 -4 5 4 6 12 9 17 6 5 -4 17 -1
26 4 24 14 66 14 98 -1z m-4205 -40 c0 -5 -4 -8 -10 -8 -5 0 -10 7 -10 16 0 8
-5 12 -11 8 -8 -4 -8 -9 0 -17 15 -15 14 -24 -2 -30 -7 -3 -19 5 -27 16 -12
21 -12 21 5 7 17 -14 18 -13 12 3 -4 10 -1 24 5 31 11 11 15 10 25 -3 7 -9 13
-19 13 -23z m368 30 c-3 -7 -11 -13 -18 -13 -7 0 -15 6 -17 13 -3 7 4 12 17
12 13 0 20 -5 18 -12z m4392 -3 c0 -8 -7 -15 -15 -15 -16 0 -20 12 -8 23 11
12 23 8 23 -8z m48 1 c-7 -8 -16 -12 -21 -9 -11 7 2 23 19 23 12 0 12 -2 2
-14z m194 0 c7 4 8 2 4 -5 -9 -13 -26 -5 -25 12 0 9 2 8 6 -1 2 -6 10 -9 15
-6z m-22 -31 c0 -5 -5 -3 -10 5 -5 8 -10 20 -10 25 0 6 5 3 10 -5 5 -8 10 -19
10 -25z m-4343 19 c-3 -3 -12 -4 -19 -1 -8 3 -5 6 6 6 11 1 17 -2 13 -5z
m-427 -14 c0 -5 -4 -10 -10 -10 -5 0 -10 5 -10 10 0 6 5 10 10 10 6 0 10 -4
10 -10z m4086 -24 c0 -14 -5 -21 -9 -17 -4 4 -5 15 -1 24 9 24 12 21 10 -7z
m64 8 c0 -8 -4 -12 -10 -9 -5 3 -10 10 -10 16 0 5 5 9 10 9 6 0 10 -7 10 -16z
m500 6 c0 -5 -9 -10 -20 -10 -11 0 -20 5 -20 10 0 6 9 10 20 10 11 0 20 -4 20
-10z m-819 -23 c-10 -9 -11 -8 -5 6 3 10 9 15 12 12 3 -3 0 -11 -7 -18z m356
17 c-3 -3 -12 -4 -19 -1 -8 3 -5 6 6 6 11 1 17 -2 13 -5z m-3830 -52 c-3 -12
-5 -11 -6 6 0 12 -6 22 -12 22 -5 0 -7 5 -3 11 9 16 27 -16 21 -39z m4068 38
c-3 -5 -12 -10 -20 -10 -8 0 -17 5 -20 10 -4 6 5 10 20 10 15 0 24 -4 20 -10z
m-231 -14 c-3 -8 2 -16 13 -19 15 -4 16 -5 1 -6 -19 -1 -32 14 -23 29 9 15 15
12 9 -4z m-4159 -6 c-3 -5 -24 -10 -46 -10 -21 0 -39 5 -39 10 0 6 21 10 46
10 27 0 43 -4 39 -10z m158 3 c-7 -2 -21 -2 -30 0 -10 3 -4 5 12 5 17 0 24 -2
18 -5z m4344 -15 c-3 -8 -6 -5 -6 6 -1 11 2 17 5 13 3 -3 4 -12 1 -19z m156 5
c-3 -7 -6 -13 -8 -13 -2 0 -5 6 -8 13 -3 8 1 14 8 14 7 0 11 -6 8 -14z m30 2
c-3 -9 -8 -14 -10 -11 -3 3 -2 9 2 15 9 16 15 13 8 -4z m17 -14 c-5 -11 -15
-23 -21 -27 -6 -3 -3 5 6 20 20 30 30 35 15 7z m-4603 3 c-3 -3 -12 -4 -19 -1
-8 3 -5 6 6 6 11 1 17 -2 13 -5z m1158 -4 c3 -5 1 -10 -4 -10 -6 0 -11 5 -11
10 0 6 2 10 4 10 3 0 8 -4 11 -10z m3035 7 c0 -2 -10 -12 -22 -23 l-23 -19 19
23 c18 21 26 27 26 19z m-4250 -17 c0 -5 -4 -10 -10 -10 -5 0 -10 5 -10 10 0
6 5 10 10 10 6 0 10 -4 10 -10z m1335 0 c-3 -5 -10 -10 -16 -10 -5 0 -9 5 -9
10 0 6 7 10 16 10 8 0 12 -4 9 -10z m-5 -36 c0 -2 -7 -4 -15 -4 -8 0 -15 4
-15 10 0 5 7 7 15 4 8 -4 15 -8 15 -10z m2777 -6 c-3 -8 -6 -5 -6 6 -1 11 2
17 5 13 3 -3 4 -12 1 -19z m500 0 c-1 -22 -47 -90 -47 -70 0 5 7 15 15 22 8 7
12 16 10 21 -5 7 14 49 22 49 1 0 1 -10 0 -22z m-4380 6 c-3 -3 -12 -4 -19 -1
-8 3 -5 6 6 6 11 1 17 -2 13 -5z m-481 -26 c0 -10 -1 -18 -3 -18 -1 0 -7 8
-12 18 -7 13 -6 19 2 19 7 0 13 -9 13 -19z m154 12 c0 -5 -6 -10 -14 -10 -8 0
-18 5 -21 10 -3 6 3 10 14 10 12 0 21 -4 21 -10z m1515 0 c3 -5 2 -10 -4 -10
-5 0 -13 5 -16 10 -3 6 -2 10 4 10 5 0 13 -4 16 -10z m155 6 c0 -3 -4 -8 -10
-11 -5 -3 -10 -1 -10 4 0 6 5 11 10 11 6 0 10 -2 10 -4z m-1764 -44 c-4 -3
-11 0 -16 8 -15 24 -11 33 6 15 9 -9 13 -19 10 -23z m4743 -36 c9 -11 9 -16 0
-22 -8 -4 -9 -3 -5 4 4 7 2 12 -3 12 -6 0 -11 5 -11 10 0 14 5 13 19 -4z
m-4701 -13 c-6 -7 -14 -10 -19 -7 -15 9 -10 20 10 20 15 0 17 -3 9 -13z m-29
-27 c-3 -3 -11 5 -18 17 -13 21 -12 21 5 5 10 -10 16 -20 13 -22z m41 -56 c6
-11 8 -20 6 -20 -3 0 -10 9 -16 20 -6 11 -8 20 -6 20 3 0 10 -9 16 -20z m50
-51 c0 -6 -4 -7 -10 -4 -5 3 -10 11 -10 16 0 6 5 7 10 4 6 -3 10 -11 10 -16z
m1657 -269 c65 -23 174 -53 243 -68 115 -24 143 -26 360 -26 218 0 244 1 363
27 71 15 182 45 248 67 65 22 129 40 142 40 57 0 89 -82 50 -129 -11 -12 -61
-36 -123 -57 -254 -86 -480 -120 -745 -111 -223 8 -373 33 -575 99 -164 53
-195 77 -183 141 7 33 38 57 75 57 16 0 81 -18 145 -40z"/>
<path d="M4005 7208 c-70 -39 -154 -103 -164 -124 -14 -31 7 -83 47 -114 32
-26 58 -25 96 3 17 13 57 38 89 56 44 25 59 40 64 62 7 35 7 33 0 69 -10 48
-84 75 -132 48z"/>
<path d="M6104 7210 c-46 -18 -68 -85 -44 -130 5 -10 52 -44 104 -75 94 -56
95 -56 126 -40 35 18 70 69 70 102 0 28 -66 84 -144 123 -62 32 -77 34 -112
20z"/>
<path d="M3689 6982 c-111 -71 -138 -145 -75 -208 51 -51 75 -45 169 45 38 36
47 52 47 79 0 58 -40 112 -82 112 -8 0 -34 -13 -59 -28z"/>
<path d="M6381 6975 c-49 -56 -41 -94 38 -170 64 -62 83 -70 127 -49 96 46 83
134 -32 222 -56 44 -93 43 -133 -3z"/>
<path d="M3122 6389 c-27 -10 -80 -91 -88 -136 -8 -43 14 -78 62 -98 66 -27
88 -21 129 36 50 70 60 101 43 135 -25 51 -96 82 -146 63z"/>
<path d="M6985 6385 c-72 -37 -83 -90 -33 -171 35 -58 65 -79 100 -71 34 9 96
58 102 83 9 36 -15 97 -54 136 -41 42 -68 47 -115 23z"/>
<path d="M7111 6107 c-13 -6 -33 -24 -45 -40 -18 -24 -19 -32 -9 -70 6 -23 24
-63 38 -89 25 -45 29 -48 66 -48 71 0 129 49 129 109 0 33 -47 128 -68 140
-27 15 -81 14 -111 -2z"/>
<path d="M2959 6088 c-30 -32 -59 -97 -59 -135 0 -52 45 -94 106 -100 46 -5
53 -3 72 22 12 15 31 52 42 83 26 69 16 104 -41 133 -51 26 -93 24 -120 -3z"/>
<path d="M3342 5316 c3 -28 13 -34 21 -12 3 8 -1 20 -9 26 -12 10 -14 8 -12
-14z"/>
<path d="M6858 5315 c5 -26 16 -32 27 -15 7 11 -11 40 -25 40 -4 0 -5 -11 -2
-25z"/>
<path d="M3320 5049 c-13 -9 -13 -10 1 -6 13 4 15 1 12 -14 -4 -13 0 -19 12
-19 11 0 15 7 13 22 -4 26 -17 32 -38 17z"/>
<path d="M6845 5050 c-4 -6 1 -7 11 -3 14 5 15 3 5 -15 -9 -18 -9 -22 3 -22
16 0 25 19 19 38 -6 14 -29 16 -38 2z"/>
<path d="M2691 4914 c0 -11 3 -14 6 -6 3 7 2 16 -1 19 -3 4 -6 -2 -5 -13z"/>
<path d="M3337 4759 c6 -6 9 -18 6 -27 -4 -10 -2 -13 5 -8 18 11 14 46 -5 46
-13 0 -14 -3 -6 -11z"/>
<path d="M6863 4752 c4 -28 13 -36 20 -18 3 8 -1 20 -9 27 -12 10 -14 8 -11
-9z"/>
<path d="M2868 4557 c-47 -21 -69 -60 -66 -114 2 -27 8 -51 13 -55 6 -5 4 -12
-5 -19 -13 -9 -13 -10 2 -6 9 3 24 -3 34 -14 9 -10 12 -19 6 -19 -6 0 -13 5
-15 10 -3 6 -4 5 -3 -2 2 -9 23 -13 66 -14 57 -1 66 1 97 29 32 29 33 33 31
93 -2 34 -5 62 -8 61 -3 -1 -5 1 -5 4 0 3 -14 18 -31 33 -35 28 -72 33 -116
13z"/>
<path d="M7223 4558 c-26 -12 -73 -100 -73 -135 0 -52 59 -103 118 -103 57 0
115 73 113 142 -2 55 -5 77 -11 75 -3 -1 -19 7 -37 16 -36 19 -77 21 -110 5z"/>
<path d="M3090 4444 c0 -6 7 -19 16 -30 14 -18 14 -18 3 6 -14 31 -19 36 -19
24z"/>
<path d="M7131 4414 c0 -11 3 -14 6 -6 3 7 2 16 -1 19 -3 4 -6 -2 -5 -13z"/>
<path d="M6707 4405 c3 -8 9 -12 14 -9 12 7 11 11 -5 17 -10 4 -13 1 -9 -8z"/>
<path d="M3330 4390 c-13 -8 -12 -10 3 -10 9 0 17 5 17 10 0 12 -1 12 -20 0z"/>
<path d="M3572 4370 c0 -14 2 -19 5 -12 2 6 2 18 0 25 -3 6 -5 1 -5 -13z"/>
<path d="M3298 4323 c12 -2 30 -2 40 0 9 3 -1 5 -23 4 -22 0 -30 -2 -17 -4z"/>
<path d="M3556 4301 c-4 -7 -5 -15 -2 -18 9 -9 19 4 14 18 -4 11 -6 11 -12 0z"/>
<path d="M6668 4303 c6 -2 18 -2 25 0 6 3 1 5 -13 5 -14 0 -19 -2 -12 -5z"/>
<path d="M3515 4271 c-3 -5 -1 -12 5 -16 5 -3 10 1 10 9 0 18 -6 21 -15 7z"/>
<path d="M6610 4250 c0 -5 5 -10 10 -10 6 0 10 5 10 10 0 6 -4 10 -10 10 -5 0
-10 -4 -10 -10z"/>
<path d="M7881 4224 c0 -11 3 -14 6 -6 3 7 2 16 -1 19 -3 4 -6 -2 -5 -13z"/>
<path d="M7851 4204 c0 -11 3 -14 6 -6 3 7 2 16 -1 19 -3 4 -6 -2 -5 -13z"/>
<path d="M2343 4130 c6 -16 13 -28 15 -26 6 6 -10 56 -18 56 -5 0 -3 -13 3
-30z"/>
<path d="M2361 4155 c0 -5 6 -21 14 -35 8 -14 14 -20 14 -15 0 6 -6 21 -14 35
-8 14 -14 21 -14 15z"/>
<path d="M2907 4080 c2 -14 13 -34 23 -44 18 -18 20 -18 26 -3 7 19 -12 47
-31 47 -8 0 -15 6 -18 13 -2 6 -2 1 0 -13z"/>
<path d="M2960 4071 c0 -5 5 -13 10 -16 6 -3 10 -2 10 4 0 5 -4 13 -10 16 -5
3 -10 2 -10 -4z"/>
<path d="M7802 4025 c0 -16 2 -22 5 -12 2 9 2 23 0 30 -3 6 -5 -1 -5 -18z"/>
<path d="M2880 3999 c0 -11 4 -18 10 -14 5 3 7 12 3 20 -7 21 -13 19 -13 -6z"/>
<path d="M7767 3937 c-6 -23 -11 -26 -21 -18 -14 12 -46 5 -46 -9 0 -5 5 -12
10 -15 6 -3 10 1 10 9 0 9 5 16 10 16 6 0 10 -7 10 -15 0 -8 -4 -15 -10 -15
-5 0 -10 -7 -10 -16 0 -9 6 -14 12 -12 19 7 50 65 46 85 -3 13 -6 10 -11 -10z"/>
<path d="M2450 3936 c0 -8 4 -17 9 -20 5 -4 7 3 4 14 -6 23 -13 26 -13 6z"/>
<path d="M2893 3943 c9 -2 17 -9 17 -14 0 -5 7 -9 16 -9 14 0 14 3 4 15 -7 8
-22 14 -34 14 -17 -1 -17 -2 -3 -6z"/>
<path d="M3050 3940 c-8 -5 -12 -12 -9 -15 4 -3 12 1 19 10 14 17 11 19 -10 5z"/>
<path d="M3163 3905 c0 -8 4 -12 9 -9 5 3 6 10 3 15 -9 13 -12 11 -12 -6z"/>
<path d="M7448 3913 c7 -3 16 -2 19 1 4 3 -2 6 -13 5 -11 0 -14 -3 -6 -6z"/>
<path d="M7520 3901 c0 -6 -7 -11 -15 -11 -8 0 -15 -4 -15 -10 0 -15 19 -12
36 4 9 9 10 17 4 21 -5 3 -10 1 -10 -4z"/>
<path d="M3127 3873 c3 -7 6 -13 8 -13 2 0 5 6 8 13 3 8 -1 14 -8 14 -7 0 -11
-6 -8 -14z"/>
<path d="M7555 3870 c-3 -5 -1 -10 4 -10 6 0 11 5 11 10 0 6 -2 10 -4 10 -3 0
-8 -4 -11 -10z"/>
<path d="M7682 3843 c-7 -22 -8 -43 -2 -52 8 -14 9 -14 15 1 4 10 12 15 17 12
6 -4 8 -1 6 7 -3 8 -10 13 -16 12 -8 -2 -9 5 -2 23 12 31 12 34 2 34 -5 0 -14
-16 -20 -37z"/>
<path d="M2586 3855 c-20 -15 -20 -15 0 -15 10 0 28 7 38 15 20 15 20 15 0 15
-10 0 -28 -7 -38 -15z"/>
<path d="M7455 3840 c11 -5 27 -9 35 -9 9 0 8 4 -5 9 -11 5 -27 9 -35 9 -9 0
-8 -4 5 -9z"/>
<path d="M2551 3818 c7 -16 16 -28 21 -28 13 0 10 9 -13 33 l-21 22 13 -27z"/>
<path d="M2890 3820 c-13 -24 3 -60 25 -60 18 0 19 12 3 28 -9 9 -9 15 0 24
16 16 15 28 -3 28 -8 0 -19 -9 -25 -20z"/>
<path d="M3010 3830 c0 -5 5 -10 10 -10 6 0 10 5 10 10 0 6 -4 10 -10 10 -5 0
-10 -4 -10 -10z"/>
<path d="M2945 3821 c-11 -10 -4 -39 11 -52 15 -12 16 -11 10 9 -6 16 -3 22 8
22 9 0 16 6 16 14 0 13 -34 19 -45 7z"/>
<path d="M2521 3813 c0 -4 4 -17 9 -28 8 -19 9 -19 9 2 1 12 -3 25 -9 28 -5 3
-10 3 -9 -2z"/>
<path d="M7191 3794 c0 -11 3 -14 6 -6 3 7 2 16 -1 19 -3 4 -6 -2 -5 -13z"/>
<path d="M7431 3791 c-11 -7 -9 -10 8 -16 25 -8 36 -2 26 14 -8 13 -15 14 -34
2z"/>
<path d="M7638 3783 c7 -3 16 -2 19 1 4 3 -2 6 -13 5 -11 0 -14 -3 -6 -6z"/>
<path d="M7353 3762 c-7 -4 9 -8 35 -9 36 -1 41 1 22 7 -34 11 -43 11 -57 2z"/>
<path d="M7238 3753 c23 -2 42 -8 42 -14 0 -5 8 -9 18 -9 15 1 15 2 -2 15 -11
9 -38 14 -60 13 l-41 -1 43 -4z"/>
<path d="M7345 3720 c-18 -8 -17 -9 8 -9 15 -1 27 4 27 9 0 12 -8 12 -35 0z"/>
<path d="M7120 3686 c0 -22 3 -27 11 -19 8 8 8 16 0 30 -9 16 -10 14 -11 -11z"/>
<path d="M7310 3690 c0 -5 5 -10 10 -10 6 0 10 5 10 10 0 6 -4 10 -10 10 -5 0
-10 -4 -10 -10z"/>
<path d="M4278 5369 c-10 -5 -23 -19 -29 -31 -10 -18 -6 -25 25 -54 21 -19 35
-38 32 -43 -4 -5 -24 -12 -46 -16 -40 -7 -70 -27 -70 -46 0 -6 12 -21 26 -34
40 -37 42 -38 75 -77 17 -21 37 -38 45 -38 8 0 20 23 29 55 9 30 20 55 25 55
4 0 31 -21 59 -46 l51 -46 34 36 c70 77 71 112 5 129 -54 14 -56 24 -13 61
l39 34 -21 28 c-39 53 -49 53 -100 4 l-46 -45 -37 43 c-37 43 -53 49 -83 31z"/>
<path d="M5685 5355 c-34 -33 -31 -56 10 -84 19 -13 35 -27 35 -31 0 -4 -15
-13 -32 -20 -71 -26 -78 -30 -78 -47 0 -10 23 -43 50 -73 l50 -55 41 43 c22
23 46 42 52 42 7 0 25 -20 40 -45 16 -25 34 -45 41 -45 19 0 129 129 123 144
-3 7 -26 18 -51 25 -24 6 -48 16 -52 22 -3 6 10 24 30 41 20 16 36 35 36 41 0
19 -53 67 -73 67 -11 0 -36 -19 -57 -42 l-38 -41 -38 41 c-43 49 -56 51 -89
17z"/>
<path d="M5020 5166 c-108 -23 -190 -90 -239 -196 -21 -46 -26 -70 -26 -145 0
-76 4 -98 26 -145 30 -65 99 -137 157 -165 l42 -20 0 -287 0 -287 81 -95 c45
-53 86 -93 90 -90 5 3 9 0 9 -5 0 -6 -6 -11 -14 -11 -20 0 -29 -17 -15 -26 8
-4 9 -3 5 4 -5 8 1 12 16 11 13 0 17 -3 10 -6 -6 -2 -10 -9 -6 -14 6 -11 25
-12 22 -1 -1 4 3 18 10 32 12 23 12 24 -2 6 -9 -11 -16 -15 -16 -10 0 6 11 20
25 32 14 12 25 28 26 34 0 7 0 57 -1 111 l-1 97 70 0 71 0 0 125 c0 139 5 131
-81 139 -20 2 -41 6 -48 10 -7 5 -11 44 -11 115 l0 107 65 42 c114 72 174 195
162 328 -14 148 -118 271 -262 309 -69 17 -90 18 -165 1z m150 -201 c40 -21
80 -82 80 -123 0 -161 -211 -219 -280 -78 -50 105 15 216 128 216 24 0 56 -7
72 -15z"/>
<path d="M4307 4079 c-9 -5 -21 -8 -26 -5 -5 3 -9 0 -8 -7 1 -28 -3 -50 -9
-45 -3 3 -20 -9 -37 -27 -50 -52 -59 -66 -53 -72 3 -4 6 -3 6 2 0 4 9 0 19 -9
11 -10 38 -20 60 -23 23 -3 43 -9 46 -13 2 -4 -11 -24 -30 -45 -41 -44 -42
-51 -13 -82 17 -19 19 -23 5 -17 -28 10 -19 -10 10 -23 17 -8 30 -9 38 -3 7 5
15 7 18 3 4 -3 7 0 7 7 0 10 3 11 11 3 15 -15 1 -36 -20 -28 -13 5 -14 4 -3
-6 9 -10 15 -10 24 -1 15 15 31 16 22 0 -4 -7 -3 -8 4 -4 9 5 9 13 1 27 -10
19 -9 19 10 9 28 -14 27 4 -1 22 -17 11 -19 16 -8 23 8 5 11 4 7 -2 -8 -13 17
-25 36 -17 7 2 22 -4 32 -16 26 -29 45 -24 87 24 l38 43 -28 23 c-15 14 -29
24 -32 23 -3 -1 -4 8 -2 20 2 17 0 19 -7 7 -11 -17 -27 -7 -16 10 4 7 16 10
26 7 11 -3 19 -1 19 4 0 5 8 9 18 9 22 0 42 19 42 40 0 17 -86 120 -101 120
-4 0 -15 -7 -23 -16 -9 -8 -20 -13 -26 -9 -5 3 -7 0 -5 -7 7 -18 -40 -62 -55
-53 -7 4 -10 23 -8 45 2 21 0 36 -4 34 -5 -3 -8 1 -8 9 0 25 -34 33 -63 16z
m104 -306 c13 -16 12 -17 -3 -4 -17 13 -22 21 -14 21 2 0 10 -8 17 -17z"/>
<path d="M5856 4071 c-3 -5 -8 -26 -12 -47 -11 -70 -23 -72 -75 -13 l-48 54
-41 -40 c-44 -42 -92 -104 -72 -91 7 4 12 1 12 -9 0 -17 41 -37 78 -37 12 0
22 -4 22 -8 0 -13 -26 -30 -34 -23 -4 4 -4 -1 0 -11 5 -13 2 -17 -12 -14 -15
2 -19 -4 -20 -34 -1 -32 4 -42 32 -63 40 -31 43 -31 73 0 13 14 28 25 35 24
33 -4 39 1 25 19 -12 15 -11 15 8 -1 13 -11 19 -25 16 -35 -5 -11 -3 -13 7 -7
10 6 12 4 6 -10 -6 -16 -4 -16 10 -4 16 13 16 12 4 -11 -11 -22 -11 -23 1 -13
8 6 28 14 44 16 17 2 29 9 28 15 -2 6 8 23 22 38 23 25 34 51 18 41 -11 -7
-33 19 -25 29 4 4 0 5 -9 1 -11 -3 -20 3 -27 18 -13 29 -8 33 50 43 54 9 63
40 24 81 -21 22 -24 30 -13 41 10 12 9 12 -5 1 -14 -10 -18 -9 -27 8 -6 11
-18 27 -27 35 -17 17 -59 22 -68 7z"/>
<path d="M5000 3815 c13 -14 26 -25 28 -25 3 0 -5 11 -18 25 -13 14 -26 25
-28 25 -3 0 5 -11 18 -25z"/>
<path d="M4225 3750 c3 -5 10 -10 16 -10 5 0 9 5 9 10 0 6 -7 10 -16 10 -8 0
-12 -4 -9 -10z"/>
<path d="M4539 3742 c-26 -31 -30 -40 -18 -48 7 -4 9 -3 6 3 -3 5 5 21 19 36
14 15 21 27 17 27 -5 0 -15 -8 -24 -18z"/>
<path d="M3960 3731 c0 -7 7 -29 16 -48 12 -25 19 -31 25 -21 5 7 9 18 9 23 0
6 -4 4 -9 -3 -7 -12 -17 3 -25 40 -2 13 -16 21 -16 9z"/>
<path d="M4420 3735 c0 -2 10 -10 23 -16 20 -11 21 -11 8 4 -13 16 -31 23 -31
12z"/>
<path d="M4160 3710 c0 -5 16 -10 36 -10 19 0 33 4 30 8 -7 12 -66 14 -66 2z"/>
<path d="M4610 3710 c0 -5 5 -10 11 -10 5 0 7 5 4 10 -3 6 -8 10 -11 10 -2 0
-4 -4 -4 -10z"/>
<path d="M5054 3704 c3 -21 33 -28 33 -8 0 8 -3 12 -5 9 -3 -3 -11 0 -18 6 -9
7 -12 6 -10 -7z"/>
<path d="M4246 3691 c-4 -5 3 -7 14 -4 23 6 26 13 6 13 -8 0 -17 -4 -20 -9z"/>
<path d="M5790 3690 c-18 -12 -2 -12 25 0 13 6 15 9 5 9 -8 0 -22 -4 -30 -9z"/>
<path d="M5947 3689 c7 -7 15 -10 18 -7 3 3 -2 9 -12 12 -14 6 -15 5 -6 -5z"/>
<path d="M4080 3670 c0 -5 4 -10 9 -10 6 0 13 5 16 10 3 6 -1 10 -9 10 -9 0
-16 -4 -16 -10z"/>
<path d="M4383 3672 c-8 -5 -9 -13 -3 -22 6 -10 13 -11 19 -5 13 13 -1 36 -16
27z"/>
<path d="M5840 3659 c0 -5 5 -7 10 -4 6 3 10 8 10 11 0 2 -4 4 -10 4 -5 0 -10
-5 -10 -11z"/>
<path d="M4140 3642 c0 -32 63 -56 73 -27 4 8 14 15 24 15 11 1 4 7 -15 15
-40 17 -82 16 -82 -3z"/>
<path d="M4625 3610 c-3 -5 -1 -10 4 -10 6 0 11 5 11 10 0 6 -2 10 -4 10 -3 0
-8 -4 -11 -10z"/>
<path d="M4348 3603 c7 -3 16 -2 19 1 4 3 -2 6 -13 5 -11 0 -14 -3 -6 -6z"/>
<path d="M4408 3603 c7 -3 16 -2 19 1 4 3 -2 6 -13 5 -11 0 -14 -3 -6 -6z"/>
<path d="M6115 3589 c-4 -6 -5 -12 -2 -15 2 -3 7 2 10 11 7 17 1 20 -8 4z"/>
<path d="M5160 3560 c0 -5 5 -10 10 -10 6 0 10 5 10 10 0 6 -4 10 -10 10 -5 0
-10 -4 -10 -10z"/>
<path d="M5840 3560 c0 -5 18 -10 40 -10 22 0 40 5 40 10 0 6 -18 10 -40 10
-22 0 -40 -4 -40 -10z"/>
<path d="M5350 3550 c0 -11 65 -24 79 -15 24 14 9 25 -34 25 -25 0 -45 -4 -45
-10z"/>
<path d="M3235 3930 c3 -5 8 -10 11 -10 2 0 4 5 4 10 0 6 -5 10 -11 10 -5 0
-7 -4 -4 -10z"/>
</g>
</svg>
